<?xml version="1.0" standalone="no"?>
<!DOCTYPE svg PUBLIC "-//W3C//DTD SVG 20010904//EN"
 "http://www.w3.org/TR/2001/REC-SVG-20010904/DTD/svg10.dtd">
<svg version="1.0" xmlns="http://www.w3.org/2000/svg"
 width="512.000000pt" height="512.000000pt" viewBox="0 0 512.000000 512.000000"
 preserveAspectRatio="xMidYMid meet">
<metadata>
Created by potrace 1.11, written by Peter Selinger 2001-2013
</metadata>
<g transform="translate(0.000000,512.000000) scale(0.100000,-0.100000)"
fill="#000000" stroke="none">
<path d="M2470 4525 c-194 -27 -346 -73 -513 -156 -372 -185 -687 -538 -811
-909 -43 -131 -57 -218 -63 -390 -9 -267 29 -448 142 -675 77 -156 164 -275
300 -410 310 -311 662 -463 1110 -482 455 -19 842 108 1157 379 l68 59 0 654
0 655 -335 0 -335 0 0 -155 0 -155 155 0 155 0 -2 -432 -3 -433 -85 -57 c-317
-214 -747 -266 -1132 -138 -304 101 -586 351 -728 644 -155 320 -155 672 0
992 149 308 452 565 774 658 142 41 212 51 381 51 178 0 263 -12 405 -57 119
-38 214 -82 313 -147 43 -28 79 -51 81 -51 3 0 173 202 194 231 11 16 6 22
-46 58 -145 98 -356 191 -528 232 -202 48 -456 61 -654 34z"/>
<path d="M2630 3020 l0 -1140 55 0 55 0 0 1140 0 1140 -55 0 -55 0 0 -1140z"/>
<path d="M2468 4137 l-48 -10 0 -1107 0 -1107 50 -10 50 -10 0 1128 c0 621 -1
1128 -2 1128 -2 -1 -24 -6 -50 -12z"/>
<path d="M2250 4071 l-45 -19 -3 -1031 -2 -1031 33 -14 c19 -7 43 -17 55 -20
l22 -7 0 1070 c0 589 -3 1071 -7 1070 -5 0 -28 -8 -53 -18z"/>
<path d="M2037 3955 l-47 -35 2 -902 3 -902 48 -34 47 -34 0 971 c0 534 -1
971 -2 971 -2 0 -24 -16 -51 -35z"/>
<path d="M1821 3766 l-51 -55 0 -691 0 -692 55 -56 55 -57 0 803 c0 441 -2
802 -4 802 -2 0 -26 -24 -55 -54z"/>
<path d="M1612 3443 c-62 -131 -64 -147 -60 -448 l3 -270 33 -80 c18 -44 42
-93 52 -110 20 -30 20 -26 20 483 0 281 -2 512 -3 512 -2 0 -22 -39 -45 -87z"/>
<path d="M728 1866 c-13 -7 -41 -47 -68 -97 l-44 -86 -94 -18 c-102 -19 -122
-32 -122 -77 0 -23 15 -47 65 -103 l66 -73 -12 -90 c-14 -111 -9 -137 30 -150
26 -9 41 -5 111 29 45 21 88 39 95 39 7 0 50 -18 95 -39 70 -34 85 -38 111
-29 39 13 44 39 30 150 l-12 90 66 73 c50 56 65 80 65 103 0 46 -20 58 -124
78 l-94 17 -24 51 c-57 123 -92 156 -140 132z m88 -272 c13 -14 39 -24 72 -29
29 -4 52 -9 52 -12 0 -3 -19 -26 -41 -51 l-41 -47 6 -68 6 -67 -50 25 c-27 14
-56 25 -65 25 -9 0 -38 -11 -65 -25 l-50 -25 6 67 6 68 -41 47 c-22 25 -41 48
-41 51 0 3 21 8 48 12 65 10 77 18 108 76 l28 51 21 -38 c11 -21 29 -48 41
-60z"/>
<path d="M4358 1866 c-13 -7 -41 -47 -68 -97 l-44 -86 -94 -18 c-102 -19 -122
-32 -122 -77 0 -23 15 -47 65 -103 l66 -73 -12 -90 c-14 -111 -9 -137 30 -150
26 -9 41 -5 111 29 45 21 88 39 95 39 7 0 50 -18 95 -39 70 -34 85 -38 111
-29 39 13 44 39 30 150 l-12 90 66 73 c50 56 65 80 65 103 0 46 -20 58 -124
78 l-94 17 -24 51 c-57 123 -92 156 -140 132z m88 -272 c13 -14 39 -24 72 -29
29 -4 52 -9 52 -12 0 -3 -19 -26 -41 -51 l-41 -47 6 -68 6 -67 -50 25 c-27 14
-56 25 -65 25 -9 0 -38 -11 -65 -25 l-50 -25 6 67 6 68 -41 47 c-22 25 -41 48
-41 51 0 3 21 8 48 12 65 10 77 18 109 75 l28 50 20 -37 c11 -20 29 -47 41
-59z"/>
<path d="M1618 1326 c-13 -7 -41 -47 -68 -97 l-44 -86 -94 -18 c-102 -19 -122
-32 -122 -77 0 -23 15 -47 65 -103 l66 -73 -12 -90 c-14 -111 -9 -137 30 -150
26 -9 41 -5 111 29 45 21 88 39 95 39 7 0 50 -18 95 -39 70 -34 85 -38 111
-29 39 13 44 39 30 150 l-12 90 66 73 c50 56 65 80 65 103 0 46 -20 58 -124
78 l-94 17 -24 51 c-57 123 -92 156 -140 132z m88 -272 c13 -14 39 -24 72 -29
29 -4 52 -9 52 -12 0 -3 -19 -26 -41 -51 l-41 -47 6 -68 6 -67 -50 25 c-61 31
-69 31 -130 0 l-50 -25 6 67 6 68 -41 47 c-22 25 -41 48 -41 51 0 3 21 8 48
12 65 10 77 18 108 76 l28 51 21 -38 c11 -21 29 -48 41 -60z"/>
<path d="M3468 1326 c-13 -7 -41 -47 -68 -97 l-44 -86 -94 -18 c-102 -19 -122
-32 -122 -77 0 -23 15 -47 65 -103 l66 -73 -12 -90 c-14 -111 -9 -137 30 -150
26 -9 41 -5 111 29 45 21 88 39 95 39 7 0 50 -18 95 -39 70 -34 85 -38 111
-29 39 13 44 39 30 150 l-12 90 66 73 c50 56 65 80 65 103 0 46 -20 58 -124
78 l-94 17 -24 51 c-57 123 -92 156 -140 132z m88 -272 c13 -14 39 -24 72 -29
29 -4 52 -9 52 -12 0 -3 -19 -26 -41 -51 l-41 -47 6 -68 6 -67 -50 25 c-61 31
-69 31 -130 0 l-50 -25 6 67 6 68 -41 47 c-22 25 -41 48 -41 51 0 3 21 8 48
12 65 10 77 18 108 76 l28 51 21 -38 c11 -21 29 -48 41 -60z"/>
<path d="M2548 1156 c-13 -7 -41 -47 -68 -97 l-44 -86 -94 -18 c-102 -19 -122
-32 -122 -77 0 -23 15 -47 65 -103 l66 -73 -12 -90 c-14 -111 -9 -137 30 -150
26 -9 41 -5 111 29 45 21 88 39 95 39 7 0 50 -18 95 -39 70 -34 85 -38 111
-29 39 13 44 39 30 150 l-12 90 66 73 c50 56 65 80 65 103 0 46 -20 58 -124
78 l-94 17 -24 51 c-57 123 -92 156 -140 132z m88 -272 c13 -14 39 -24 72 -29
29 -4 52 -9 52 -12 0 -3 -19 -26 -41 -51 l-41 -47 6 -68 6 -67 -50 25 c-61 31
-69 31 -130 0 l-50 -25 6 67 6 68 -41 47 c-22 25 -41 48 -41 51 0 3 21 8 48
12 65 10 77 18 108 76 l28 51 21 -38 c11 -21 29 -48 41 -60z"/>
</g>
</svg>
